<svg width="1050" height="360" viewBox="0 0 1050 360" fill="none" xmlns="http://www.w3.org/2000/svg">
<rect width="30" height="30" fill="black"/>
<rect y="180" width="30" height="30" fill="black"/>
<rect x="120" width="30" height="30" fill="black"/>
<rect x="240" width="30" height="30" fill="black"/>
<rect x="60" y="60" width="30" height="30" fill="black"/>
<rect x="180" y="60" width="30" height="30" fill="black"/>
<rect y="60" width="30" height="30" fill="black"/>
<rect y="240" width="30" height="30" fill="black"/>
<rect x="60" y="240" width="30" height="30" fill="black"/>
<rect x="120" y="180" width="30" height="30" fill="black"/>
<rect x="120" y="300" width="30" height="30" fill="black"/>
<rect x="180" y="300" width="30" height="30" fill="black"/>
<rect x="240" y="300" width="30" height="30" fill="black"/>
<rect x="240" y="240" width="30" height="30" fill="black"/>
<rect x="240" y="180" width="30" height="30" fill="black"/>
<rect x="300" y="180" width="30" height="30" fill="black"/>
<rect y="300" width="30" height="30" fill="black"/>
<rect x="120" y="60" width="30" height="30" fill="black"/>
<rect x="240" y="60" width="30" height="30" fill="black"/>
<rect x="60" y="120" width="30" height="30" fill="black"/>
<rect x="180" y="120" width="30" height="30" fill="black"/>
<rect y="30" width="30" height="30" fill="black"/>
<rect y="210" width="30" height="30" fill="black"/>
<rect x="120" y="30" width="30" height="30" fill="black"/>
<rect x="240" y="30" width="30" height="30" fill="black"/>
<rect x="60" y="90" width="30" height="30" fill="black"/>
<rect x="180" y="90" width="30" height="30" fill="black"/>
<rect y="90" width="30" height="30" fill="black"/>
<rect y="270" width="30" height="30" fill="black"/>
<rect x="60" y="270" width="30" height="30" fill="black"/>
<rect x="120" y="210" width="30" height="30" fill="black"/>
<rect x="120" y="330" width="30" height="30" fill="black"/>
<rect x="180" y="330" width="30" height="30" fill="black"/>
<rect x="240" y="330" width="30" height="30" fill="black"/>
<rect x="240" y="270" width="30" height="30" fill="black"/>
<rect x="240" y="210" width="30" height="30" fill="black"/>
<rect x="300" y="210" width="30" height="30" fill="black"/>
<rect y="330" width="30" height="30" fill="black"/>
<rect x="120" y="90" width="30" height="30" fill="black"/>
<rect x="240" y="90" width="30" height="30" fill="black"/>
<rect x="60" y="150" width="30" height="30" fill="black"/>
<rect x="180" y="150" width="30" height="30" fill="black"/>
<rect x="30" width="30" height="30" fill="black"/>
<rect x="30" y="180" width="30" height="30" fill="black"/>
<rect x="150" width="30" height="30" fill="black"/>
<rect x="270" width="30" height="30" fill="black"/>
<rect x="90" y="60" width="30" height="30" fill="black"/>
<rect x="210" y="60" width="30" height="30" fill="black"/>
<rect x="30" y="60" width="30" height="30" fill="black"/>
<rect x="30" y="240" width="30" height="30" fill="black"/>
<rect x="90" y="240" width="30" height="30" fill="black"/>
<rect x="150" y="180" width="30" height="30" fill="black"/>
<rect x="150" y="300" width="30" height="30" fill="black"/>
<rect x="210" y="300" width="30" height="30" fill="black"/>
<rect x="270" y="300" width="30" height="30" fill="black"/>
<rect x="270" y="240" width="30" height="30" fill="black"/>
<rect x="270" y="180" width="30" height="30" fill="black"/>
<rect x="330" y="180" width="30" height="30" fill="black"/>
<rect x="30" y="300" width="30" height="30" fill="black"/>
<rect x="150" y="60" width="30" height="30" fill="black"/>
<rect x="270" y="60" width="30" height="30" fill="black"/>
<rect x="90" y="120" width="30" height="30" fill="black"/>
<rect x="210" y="120" width="30" height="30" fill="black"/>
<rect x="30" y="30" width="30" height="30" fill="black"/>
<rect x="30" y="210" width="30" height="30" fill="black"/>
<rect x="150" y="30" width="30" height="30" fill="black"/>
<rect x="270" y="30" width="30" height="30" fill="black"/>
<rect x="90" y="90" width="30" height="30" fill="black"/>
<rect x="210" y="90" width="30" height="30" fill="black"/>
<rect x="30" y="90" width="30" height="30" fill="black"/>
<rect x="30" y="270" width="30" height="30" fill="black"/>
<rect x="90" y="270" width="30" height="30" fill="black"/>
<rect x="150" y="210" width="30" height="30" fill="black"/>
<rect x="150" y="330" width="30" height="30" fill="black"/>
<rect x="210" y="330" width="30" height="30" fill="black"/>
<rect x="270" y="330" width="30" height="30" fill="black"/>
<rect x="360" y="330" width="30" height="30" fill="black"/>
<rect x="750" y="60" width="30" height="30" fill="black"/>
<rect x="420" y="195" width="30" height="30" fill="black"/>
<rect x="480" y="330" width="30" height="30" fill="black"/>
<rect x="540" y="60" width="30" height="30" fill="black"/>
<rect x="540.646" y="195" width="30" height="30" fill="black"/>
<rect x="660.646" y="195" width="30" height="30" fill="black"/>
<rect x="840" y="330" width="30" height="30" fill="black"/>
<rect x="600" y="330" width="30" height="30" fill="black"/>
<rect x="720" y="330" width="30" height="30" fill="black"/>
<rect x="660" y="60" width="30" height="30" fill="black"/>
<rect x="390" y="330" width="30" height="30" fill="black"/>
<rect x="780" y="60" width="30" height="30" fill="black"/>
<rect x="420" y="165" width="30" height="30" fill="black"/>
<rect x="480" y="300" width="30" height="30" fill="black"/>
<rect x="540" y="30" width="30" height="30" fill="black"/>
<rect x="540.646" y="165" width="30" height="30" fill="black"/>
<rect x="660.646" y="165" width="30" height="30" fill="black"/>
<rect x="840" y="300" width="30" height="30" fill="black"/>
<rect x="600" y="300" width="30" height="30" fill="black"/>
<rect x="720" y="300" width="30" height="30" fill="black"/>
<rect x="660" y="30" width="30" height="30" fill="black"/>
<rect x="450" y="165" width="30" height="30" fill="black"/>
<rect x="510" y="300" width="30" height="30" fill="black"/>
<rect x="600" y="30" width="30" height="30" fill="black"/>
<rect x="570.646" y="165" width="30" height="30" fill="black"/>
<rect x="690.646" y="165" width="30" height="30" fill="black"/>
<rect x="870" y="300" width="30" height="30" fill="black"/>
<rect x="990" y="300" width="30" height="30" fill="black"/>
<rect x="810.646" y="165" width="30" height="30" fill="black"/>
<rect x="900" y="30" width="30" height="30" fill="black"/>
<rect x="480" y="135" width="30" height="30" fill="black"/>
<rect x="510" y="270" width="30" height="30" fill="black"/>
<rect x="570" width="30" height="30" fill="black"/>
<rect x="570.646" y="135" width="30" height="30" fill="black"/>
<rect x="690.646" y="135" width="30" height="30" fill="black"/>
<rect x="870" y="270" width="30" height="30" fill="black"/>
<rect x="990" y="270" width="30" height="30" fill="black"/>
<rect x="810.646" y="135" width="30" height="30" fill="black"/>
<rect x="900" width="30" height="30" fill="black"/>
<rect x="630" y="270" width="30" height="30" fill="black"/>
<rect x="750" y="270" width="30" height="30" fill="black"/>
<rect x="690" width="30" height="30" fill="black"/>
<rect x="540" y="270" width="30" height="30" fill="black"/>
<rect x="600" width="30" height="30" fill="black"/>
<rect x="600.646" y="135" width="30" height="30" fill="black"/>
<rect x="720.646" y="135" width="30" height="30" fill="black"/>
<rect x="900" y="270" width="30" height="30" fill="black"/>
<rect x="1020" y="270" width="30" height="30" fill="black"/>
<rect x="840.646" y="135" width="30" height="30" fill="black"/>
<rect x="930" width="30" height="30" fill="black"/>
<rect x="660" y="270" width="30" height="30" fill="black"/>
<rect x="780" y="270" width="30" height="30" fill="black"/>
<rect x="720" width="30" height="30" fill="black"/>
<rect x="480" y="195" width="30" height="30" fill="black"/>
<rect x="540" y="330" width="30" height="30" fill="black"/>
<rect x="600" y="60" width="30" height="30" fill="black"/>
<rect x="600.646" y="195" width="30" height="30" fill="black"/>
<rect x="720.646" y="165" width="30" height="30" fill="black"/>
<rect x="900" y="330" width="30" height="30" fill="black"/>
<rect x="660" y="330" width="30" height="30" fill="black"/>
<rect x="510" y="330" width="30" height="30" fill="black"/>
<rect x="570" y="60" width="30" height="30" fill="black"/>
<rect x="570.646" y="195" width="30" height="30" fill="black"/>
<rect x="870" y="330" width="30" height="30" fill="black"/>
<rect x="990" y="330" width="30" height="30" fill="black"/>
<rect x="810.646" y="195" width="30" height="30" fill="black"/>
<rect x="900" y="60" width="30" height="30" fill="black"/>
<rect x="630" y="330" width="30" height="30" fill="black"/>
<rect x="360" y="30" width="30" height="30" fill="black"/>
<rect x="420" y="30" width="30" height="30" fill="black"/>
<rect x="480" y="30" width="30" height="30" fill="black"/>
<rect x="390" y="60" width="30" height="30" fill="black"/>
<rect x="450" y="60" width="30" height="30" fill="black"/>
<rect x="390" y="270" width="30" height="30" fill="black"/>
<rect x="780" width="30" height="30" fill="black"/>
<rect x="420" y="270" width="30" height="30" fill="black"/>
<rect x="810" width="30" height="30" fill="black"/>
<rect x="390" y="300" width="30" height="30" fill="black"/>
<rect x="780" y="30" width="30" height="30" fill="black"/>
<rect x="420" y="135" width="30" height="30" fill="black"/>
<rect x="480" y="270" width="30" height="30" fill="black"/>
<rect x="540" width="30" height="30" fill="black"/>
<rect x="540.646" y="135" width="30" height="30" fill="black"/>
<rect x="660.646" y="135" width="30" height="30" fill="black"/>
<rect x="840" y="270" width="30" height="30" fill="black"/>
<rect x="960" y="270" width="30" height="30" fill="black"/>
<rect x="780.646" y="135" width="30" height="30" fill="black"/>
<rect x="870" width="30" height="30" fill="black"/>
<rect x="600" y="270" width="30" height="30" fill="black"/>
<rect x="720" y="270" width="30" height="30" fill="black"/>
<rect x="660" width="30" height="30" fill="black"/>
<rect x="360" width="30" height="30" fill="black"/>
<rect x="420" width="30" height="30" fill="black"/>
<rect x="480" width="30" height="30" fill="black"/>
<rect x="390" y="30" width="30" height="30" fill="black"/>
<rect x="450" y="30" width="30" height="30" fill="black"/>
<rect x="270" y="270" width="30" height="30" fill="black"/>
<rect x="270" y="210" width="30" height="30" fill="black"/>
<rect x="330" y="210" width="30" height="30" fill="black"/>
<rect x="30" y="330" width="30" height="30" fill="black"/>
<rect x="150" y="90" width="30" height="30" fill="black"/>
<rect x="270" y="90" width="30" height="30" fill="black"/>
<rect x="90" y="150" width="30" height="30" fill="black"/>
<rect x="210" y="150" width="30" height="30" fill="black"/>
</svg>
