<svg width="420" height="420" viewBox="0 0 420 420" fill="none" xmlns="http://www.w3.org/2000/svg">
<rect width="70" height="70" fill="black"/>
<rect y="210" width="70" height="70" fill="black"/>
<rect x="140" width="70" height="70" fill="black"/>
<rect x="280" width="70" height="70" fill="black"/>
<rect y="70" width="70" height="70" fill="black"/>
<rect y="280" width="70" height="70" fill="black"/>
<rect y="350" width="70" height="70" fill="black"/>
<rect x="140" y="70" width="70" height="70" fill="black"/>
<rect x="280" y="70" width="70" height="70" fill="black"/>
<rect x="70" y="70" width="70" height="70" fill="black"/>
<rect x="210" y="70" width="70" height="70" fill="black"/>
<rect x="70" y="140" width="70" height="70" fill="black"/>
<rect x="70" y="280" width="70" height="70" fill="black"/>
<rect x="140" y="210" width="70" height="70" fill="black"/>
<rect x="140" y="350" width="70" height="70" fill="black"/>
<rect x="210" y="350" width="70" height="70" fill="black"/>
<rect x="280" y="350" width="70" height="70" fill="black"/>
<rect x="280" y="280" width="70" height="70" fill="black"/>
<rect x="280" y="210" width="70" height="70" fill="black"/>
<rect x="350" y="210" width="70" height="70" fill="black"/>
<rect x="210" y="140" width="70" height="70" fill="black"/>
</svg>
