<svg width="200" height="200" viewBox="0 0 200 200" fill="none" xmlns="http://www.w3.org/2000/svg">
<g clip-path="url(#clip0_47_539)">
<rect width="200" height="200" fill="white"/>
<rect x="-2.05258" width="20.4105" height="59.179" fill="black"/>
<rect x="79.5894" width="20.4105" height="59.179" fill="black"/>
<rect x="161.231" width="20.4105" height="59.179" fill="black"/>
<rect x="38.7685" y="79.5895" width="20.4105" height="20.4105" fill="black"/>
<rect x="120.411" y="79.5895" width="20.4105" height="20.4105" fill="black"/>
<rect x="-2.05258" y="79.5895" width="20.4105" height="20.4105" fill="black"/>
<rect x="79.5894" y="79.5895" width="20.4105" height="20.4105" fill="black"/>
<rect x="161.231" y="79.5895" width="20.4105" height="20.4105" fill="black"/>
<rect x="38.7685" y="120.41" width="20.4105" height="20.4105" fill="black"/>
<rect x="120.411" y="120.41" width="20.4105" height="20.4105" fill="black"/>
<rect x="-2.05258" y="59.179" width="20.4105" height="20.4105" fill="black"/>
<rect x="79.5894" y="59.179" width="20.4105" height="20.4105" fill="black"/>
<rect x="161.231" y="59.179" width="20.4105" height="20.4105" fill="black"/>
<rect x="38.7685" y="100" width="20.4105" height="20.4105" fill="black"/>
<rect x="120.411" y="100" width="20.4105" height="20.4105" fill="black"/>
<rect x="-2.05258" y="100" width="20.4105" height="20.4105" fill="black"/>
<rect x="79.5894" y="100" width="20.4105" height="20.4105" fill="black"/>
<rect x="161.231" y="100" width="20.4105" height="20.4105" fill="black"/>
<rect x="38.7685" y="140.821" width="20.4105" height="59.179" fill="black"/>
<rect x="120.411" y="140.821" width="20.4105" height="59.179" fill="black"/>
<rect x="18.3579" width="20.4105" height="59.179" fill="black"/>
<rect x="99.9999" width="20.4105" height="59.179" fill="black"/>
<rect x="181.642" width="20.4105" height="59.179" fill="black"/>
<rect x="59.179" y="79.5895" width="20.4105" height="20.4105" fill="black"/>
<rect x="140.821" y="79.5895" width="20.4105" height="20.4105" fill="black"/>
<rect x="18.3579" y="79.5895" width="20.4105" height="20.4105" fill="black"/>
<rect x="99.9999" y="79.5895" width="20.4105" height="20.4105" fill="black"/>
<rect x="181.642" y="79.5895" width="20.4105" height="20.4105" fill="black"/>
<rect x="59.179" y="120.41" width="20.4105" height="20.4105" fill="black"/>
<rect x="140.821" y="120.41" width="20.4105" height="20.4105" fill="black"/>
<rect x="18.3579" y="59.179" width="20.4105" height="20.4105" fill="black"/>
<rect x="99.9999" y="59.179" width="20.4105" height="20.4105" fill="black"/>
<rect x="181.642" y="59.179" width="20.4105" height="20.4105" fill="black"/>
<rect x="59.179" y="100" width="20.4105" height="20.4105" fill="black"/>
<rect x="140.821" y="100" width="20.4105" height="20.4105" fill="black"/>
<rect x="18.3579" y="100" width="20.4105" height="20.4105" fill="black"/>
<rect x="99.9999" y="100" width="20.4105" height="20.4105" fill="black"/>
<rect x="181.642" y="100" width="20.4105" height="20.4105" fill="black"/>
<rect x="59.179" y="140.821" width="20.4105" height="59.179" fill="black"/>
<rect x="140.821" y="140.821" width="20.4105" height="59.179" fill="black"/>
</g>
<defs>
<clipPath id="clip0_47_539">
<rect width="200" height="200" fill="white"/>
</clipPath>
</defs>
</svg>
