<svg width="200" height="200" viewBox="0 0 200 200" fill="none" xmlns="http://www.w3.org/2000/svg">
<rect width="200" height="200" fill="white"/>
<rect x="10.709" y="75.0077" width="17.8582" height="35.6706" fill="black"/>
<rect x="82.1418" y="75.0077" width="17.8582" height="35.6706" fill="black"/>
<rect x="153.575" y="75.0077" width="17.8582" height="35.6706" fill="black"/>
<rect x="46.4254" y="128.536" width="17.8582" height="17.8582" fill="black"/>
<rect x="46.4254" y="0.0307312" width="17.8582" height="12.4962" fill="black"/>
<rect x="117.858" y="128.536" width="17.8582" height="17.8582" fill="black"/>
<rect x="117.858" y="0.0307312" width="17.8582" height="12.4962" fill="black"/>
<rect x="10.709" y="128.536" width="17.8582" height="17.8582" fill="black"/>
<rect x="82.1418" y="128.536" width="17.8582" height="17.8582" fill="black"/>
<rect x="153.575" y="128.536" width="17.8582" height="17.8582" fill="black"/>
<rect x="46.4254" y="164.253" width="17.8582" height="17.8582" fill="black"/>
<rect x="46.4254" y="25.023" width="17.8582" height="12.4962" fill="black"/>
<rect x="117.858" y="164.253" width="17.8582" height="17.8582" fill="black"/>
<rect x="117.858" y="25.023" width="17.8582" height="12.4962" fill="black"/>
<rect x="10.709" y="110.678" width="17.8582" height="17.8582" fill="black"/>
<rect x="82.1418" y="110.678" width="17.8582" height="17.8582" fill="black"/>
<rect x="153.575" y="110.678" width="17.8582" height="17.8582" fill="black"/>
<rect x="46.4254" y="146.395" width="17.8582" height="17.8582" fill="black"/>
<rect x="46.4254" y="12.5269" width="17.8582" height="12.4962" fill="black"/>
<rect x="117.858" y="146.395" width="17.8582" height="17.8582" fill="black"/>
<rect x="117.858" y="12.5269" width="17.8582" height="12.4962" fill="black"/>
<rect x="10.709" y="146.395" width="17.8582" height="17.8582" fill="black"/>
<rect x="82.1418" y="146.395" width="17.8582" height="17.8582" fill="black"/>
<rect x="153.575" y="146.395" width="17.8582" height="17.8582" fill="black"/>
<rect x="46.4254" y="182.111" width="17.8582" height="17.8582" fill="black"/>
<rect x="46.4254" y="37.5192" width="17.8582" height="12.4962" fill="black"/>
<rect x="117.858" y="182.111" width="17.8582" height="17.8582" fill="black"/>
<rect x="117.858" y="37.5192" width="17.8582" height="12.4962" fill="black"/>
<rect x="28.5672" y="75.0077" width="17.8582" height="35.6706" fill="black"/>
<rect x="100" y="75.0077" width="17.8582" height="35.6706" fill="black"/>
<rect x="171.433" y="75.0077" width="17.8582" height="35.6706" fill="black"/>
<rect x="64.2838" y="128.536" width="17.8582" height="17.8582" fill="black"/>
<rect x="64.2838" y="0.0307312" width="17.8582" height="12.4962" fill="black"/>
<rect x="135.716" y="128.536" width="17.8582" height="17.8582" fill="black"/>
<rect x="135.716" y="0.0307312" width="17.8582" height="12.4962" fill="black"/>
<rect x="28.5672" y="128.536" width="17.8582" height="17.8582" fill="black"/>
<rect x="100" y="128.536" width="17.8582" height="17.8582" fill="black"/>
<rect x="171.433" y="128.536" width="17.8582" height="17.8582" fill="black"/>
<rect x="64.2838" y="164.253" width="17.8582" height="17.8582" fill="black"/>
<rect x="64.2838" y="25.023" width="17.8582" height="12.4962" fill="black"/>
<rect x="135.716" y="164.253" width="17.8582" height="17.8582" fill="black"/>
<rect x="135.716" y="25.023" width="17.8582" height="12.4962" fill="black"/>
<rect x="28.5672" y="110.678" width="17.8582" height="17.8582" fill="black"/>
<rect x="100" y="110.678" width="17.8582" height="17.8582" fill="black"/>
<rect x="171.433" y="110.678" width="17.8582" height="17.8582" fill="black"/>
<rect x="64.2838" y="146.395" width="17.8582" height="17.8582" fill="black"/>
<rect x="64.2838" y="12.5269" width="17.8582" height="12.4962" fill="black"/>
<rect x="135.716" y="146.395" width="17.8582" height="17.8582" fill="black"/>
<rect x="135.716" y="12.5269" width="17.8582" height="12.4962" fill="black"/>
<rect x="28.5672" y="146.395" width="17.8582" height="17.8582" fill="black"/>
<rect x="100" y="146.395" width="17.8582" height="17.8582" fill="black"/>
<rect x="171.433" y="146.395" width="17.8582" height="17.8582" fill="black"/>
<rect x="64.2838" y="182.111" width="17.8582" height="17.8582" fill="black"/>
<rect x="64.2838" y="37.5192" width="17.8582" height="12.4962" fill="black"/>
<rect x="135.716" y="182.111" width="17.8582" height="17.8582" fill="black"/>
<rect x="135.716" y="37.5192" width="17.8582" height="12.4962" fill="black"/>
</svg>
